<?xml version="1.0" encoding="iso-8859-1"?>
<!-- Generator: Adobe Illustrator 18.0.0, SVG Export Plug-In . SVG Version: 6.00 Build 0)  -->
<!DOCTYPE svg PUBLIC "-//W3C//DTD SVG 1.1//EN" "http://www.w3.org/Graphics/SVG/1.1/DTD/svg11.dtd">
<svg version="1.1" id="Capa_1" xmlns="http://www.w3.org/2000/svg" xmlns:xlink="http://www.w3.org/1999/xlink" x="0px" y="0px"
	 viewBox="0 0 164.97 164.97" style="enable-background:new 0 0 164.97 164.97;" xml:space="preserve">
<path d="M153.679,103.607c-7.948-6.581-16.133-7.965-23.354-9.186c-4.795-0.811-8.715-1.483-12.168-3.469
	c19.313-4.195,33.809-14.162,41.238-28.565c7.123-13.809,6.648-30.314-1.299-45.279c-4.818-9.086-15.28-15.717-26.651-16.893
	c-10.926-1.129-21.093,2.913-27.905,11.106c-6.58,7.948-7.964,16.133-9.185,23.354c-0.805,4.761-1.474,8.658-3.426,12.093
	c-4.191-19.323-14.16-33.826-28.567-41.259C48.553-1.614,32.048-1.141,17.08,6.806C7.993,11.626,1.362,22.088,0.186,33.461
	C-0.943,44.386,3.1,54.552,11.292,61.363c7.949,6.581,16.134,7.965,23.355,9.186c4.796,0.811,8.716,1.483,12.17,3.47
	c-19.314,4.194-33.81,14.161-41.24,28.564c-7.123,13.809-6.649,30.314,1.298,45.28c4.819,9.087,15.282,15.718,26.655,16.893
	c1.206,0.125,2.401,0.187,3.585,0.187c9.542,0,18.257-4.005,24.316-11.292c6.581-7.948,7.965-16.133,9.186-23.354
	c0.805-4.761,1.474-8.659,3.426-12.094c4.191,19.323,14.16,33.826,28.567,41.258c6.499,3.353,13.594,5.022,20.846,5.022
	c8.157,0,16.512-2.113,24.435-6.32c9.087-4.819,15.717-15.282,16.893-26.655C165.913,120.584,161.87,110.418,153.679,103.607z
	 M82.485,101.144c-10.289,0-18.66-8.371-18.66-18.659s8.371-18.659,18.66-18.659s18.66,8.371,18.66,18.659
	S92.774,101.144,82.485,101.144z M109.144,37.175c1.038-6.138,1.934-11.439,5.938-16.276c4.861-5.845,11.371-6.121,14.818-5.764
	c6.335,0.655,12.48,4.356,14.945,9.005c5.692,10.717,6.125,21.858,1.218,31.371c-5.252,10.183-15.963,17.376-30.521,20.663
	c-1.572-8.248-6.161-15.437-12.575-20.372C107.048,49.493,108.184,42.849,109.144,37.175z M20.87,49.82
	c-5.845-4.86-6.12-11.369-5.763-14.816c0.655-6.337,4.356-12.482,9.005-14.947c10.719-5.691,21.861-6.123,31.372-1.217
	c10.199,5.261,17.4,15.997,20.679,30.59c-8.23,1.571-15.403,6.147-20.335,12.54c-6.324-4.108-12.99-5.249-18.68-6.211
	C31.009,54.721,25.707,53.825,20.87,49.82z M55.827,127.795c-1.038,6.138-1.935,11.439-5.94,16.277
	c-4.86,5.845-11.373,6.12-14.815,5.763c-6.336-0.655-12.482-4.356-14.947-9.004c-5.692-10.718-6.124-21.859-1.217-31.372
	c5.252-10.182,15.962-17.376,30.52-20.661c1.572,8.248,6.162,15.436,12.576,20.371C57.923,115.477,56.786,122.122,55.827,127.795z
	 M149.864,129.966c-0.655,6.337-4.356,12.482-9.004,14.947c-10.719,5.692-21.859,6.124-31.373,1.217
	c-10.199-5.261-17.4-15.997-20.678-30.591c8.23-1.571,15.403-6.146,20.335-12.541c6.324,4.109,12.99,5.25,18.679,6.212
	c6.138,1.038,11.439,1.934,16.277,5.939C149.945,120.01,150.22,126.519,149.864,129.966z"/>
<g>
</g>
<g>
</g>
<g>
</g>
<g>
</g>
<g>
</g>
<g>
</g>
<g>
</g>
<g>
</g>
<g>
</g>
<g>
</g>
<g>
</g>
<g>
</g>
<g>
</g>
<g>
</g>
<g>
</g>
</svg>
